<?xml version="1.0" encoding="utf-8"?>
<!-- Generator: Adobe Illustrator 17.1.0, SVG Export Plug-In . SVG Version: 6.00 Build 0)  -->
<!DOCTYPE svg PUBLIC "-//W3C//DTD SVG 1.1//EN" "http://www.w3.org/Graphics/SVG/1.1/DTD/svg11.dtd">
<svg version="1.1" id="Layer_3" xmlns="http://www.w3.org/2000/svg" xmlns:xlink="http://www.w3.org/1999/xlink" x="0px" y="0px"
	 viewBox="0 0 18.8 16.4" enable-background="new 0 0 18.8 16.4" xml:space="preserve">
<g>
	<path fill="#00AEFF" d="M3.5,3.8c0-0.2,0-0.3,0-0.4c0-0.9,0-1.9,0-2.8C3.5,0.2,3.7,0,4.1,0c3.5,0,7.1,0,10.6,0
		c0.4,0,0.6,0.2,0.6,0.6c0,0.9,0,1.8,0,2.7c0,0.1,0,0.2,0,0.4c0.5,0,1,0,1.4,0c0.6,0,1.1,0.1,1.5,0.6c0.3,0.4,0.5,0.8,0.5,1.3
		c0,1.9,0,3.8,0,5.7c0,1-0.8,1.8-1.8,1.9c-0.5,0-1.1,0-1.7,0c0,0.2,0,0.4,0,0.6c0,0.7,0,1.4,0,2.2c0,0.4-0.2,0.6-0.6,0.6
		c-3.5,0-7,0-10.6,0c-0.4,0-0.6-0.2-0.6-0.6c0-0.8,0-1.6,0-2.3c0-0.1,0-0.2,0-0.4c-0.5,0-1,0-1.5,0c-1.3,0-2-0.8-2-2
		c0-1.8,0-3.6,0-5.4c0-1.1,0.7-1.9,1.8-2C2.4,3.7,2.9,3.8,3.5,3.8z M15.3,12.2c0.1,0,0.1,0,0.1,0c0.5,0,1,0,1.4,0c0.6,0,1-0.4,1-1
		c0-1.8,0-3.6,0-5.4c0-0.7-0.4-1-1.1-1c-0.8,0-1.7,0-2.5,0c-4.1,0-8.2,0-12.3,0C1.3,4.7,1,5.1,0.9,5.8c0,0.4,0,0.7,0,1.1
		c0,1.4,0,2.9,0,4.3c0,0.5,0.3,1,0.8,1c0.6,0,1.2,0,1.8,0c0-0.1,0-0.2,0-0.3c0-0.8,0-1.5,0-2.3c0-0.5,0.2-0.6,0.6-0.6
		c3.5,0,7,0,10.5,0c0.5,0,0.6,0.2,0.6,0.6C15.3,10.4,15.3,11.3,15.3,12.2z M4.5,15.5c3.3,0,6.5,0,9.8,0c0-1.9,0-3.7,0-5.6
		c-3.3,0-6.5,0-9.8,0C4.5,11.7,4.5,13.6,4.5,15.5z M4.5,3.7c3.3,0,6.6,0,9.8,0c0-0.9,0-1.8,0-2.7C11,1,7.8,1,4.5,1
		C4.5,1.9,4.5,2.8,4.5,3.7z"/>
	<path fill="#00AEFF" d="M9.4,12c-1,0-1.9,0-2.9,0c-0.4,0-0.6-0.2-0.6-0.5c0-0.3,0.2-0.5,0.6-0.5c1.9,0,3.9,0,5.8,0
		c0.4,0,0.6,0.2,0.6,0.4c0,0.3-0.2,0.5-0.6,0.5C11.4,12,10.4,12,9.4,12z"/>
	<path fill="#00AEFF" d="M9.4,14.3c-1,0-1.9,0-2.9,0c-0.4,0-0.6-0.2-0.6-0.5c0-0.3,0.2-0.5,0.6-0.5c2,0,3.9,0,5.9,0
		c0.4,0,0.6,0.2,0.6,0.5c0,0.3-0.2,0.5-0.6,0.5C11.4,14.3,10.4,14.3,9.4,14.3z"/>
</g>
</svg>
